<?xml version="1.0"?>
<svg xmlns="http://www.w3.org/2000/svg" viewBox="0 0 64 64" width="512" height="512"><g id="Flat"><path d="M7,19H57a2,2,0,0,1,2,2V57a0,0,0,0,1,0,0H5a0,0,0,0,1,0,0V21A2,2,0,0,1,7,19Z" style="fill:#a7d6dd"/><path d="M3,57H61v2a2,2,0,0,1-2,2H5a2,2,0,0,1-2-2Z" style="fill:#6cbbc7"/><path d="M11,53H53a2,2,0,0,0,2-2V9H9V51A2,2,0,0,0,11,53Z" style="fill:#e6e6e6"/><path d="M9,11H55V5a2,2,0,0,0-2-2H11A2,2,0,0,0,9,5Z" style="fill:#b3b3b3"/><path d="M13,8a1,1,0,0,1-.71-1.71,1.032,1.032,0,0,1,.33-.21,1,1,0,0,1,.76,0,.9.9,0,0,1,.54.54.943.943,0,0,1,0,.76,1.032,1.032,0,0,1-.21.33A1.052,1.052,0,0,1,13,8Z" style="fill:#ff6536"/><path d="M17,8a1.052,1.052,0,0,1-.71-.29A1.033,1.033,0,0,1,16,7a1,1,0,0,1,.08-.38.933.933,0,0,1,.21-.33,1.047,1.047,0,0,1,1.42,0,.933.933,0,0,1,.21.33A1,1,0,0,1,18,7a1.033,1.033,0,0,1-.29.71A1.052,1.052,0,0,1,17,8Z" style="fill:#fdb62f"/><path d="M21,8a1,1,0,0,1-.71-1.71,1.047,1.047,0,0,1,1.42,0,1.155,1.155,0,0,1,.21.33.943.943,0,0,1,0,.76,1.155,1.155,0,0,1-.21.33A1.052,1.052,0,0,1,21,8Z" style="fill:#02998a"/><path d="M35.757,22l-1.671,1.671A11.916,11.916,0,0,0,31,22.393V19H25v3.393a11.916,11.916,0,0,0-3.086,1.278l-2.4-2.4-4.243,4.243,2.4,2.4A11.916,11.916,0,0,0,16.393,31H13v6h3.393a11.916,11.916,0,0,0,1.278,3.086l-2.4,2.4,4.243,4.243,2.4-2.4A11.916,11.916,0,0,0,25,45.607V49h6V45.607a11.916,11.916,0,0,0,3.086-1.278l2.4,2.4,4.243-4.243-2.4-2.4A11.916,11.916,0,0,0,39.607,37H43V31H39.607a11.916,11.916,0,0,0-1.278-3.086L40,26.243ZM28,41a7,7,0,1,1,7-7A7,7,0,0,1,28,41Z" style="fill:#b3b3b3"/><path d="M42,17a6.967,6.967,0,0,0-1.619.2l-1.149-1.99-3.464,2L36.917,19.2A6.973,6.973,0,0,0,35.294,22H33v4h2.294a6.973,6.973,0,0,0,1.623,2.8l-1.149,1.991,3.464,2,1.149-1.99a6.785,6.785,0,0,0,3.238,0l1.149,1.99,3.464-2L47.083,28.8A6.973,6.973,0,0,0,48.706,26H51V22H48.706a6.973,6.973,0,0,0-1.623-2.8l1.149-1.991-3.464-2L43.619,17.2A6.967,6.967,0,0,0,42,17Zm3,7a3,3,0,1,1-3-3A3,3,0,0,1,45,24Z" style="fill:gray"/></g></svg>
